<?xml version="1.0" encoding="UTF-8" standalone="no"?>
<!DOCTYPE svg PUBLIC "-//W3C//DTD SVG 1.1//EN"
 "http://www.w3.org/Graphics/SVG/1.1/DTD/svg11.dtd">
<!-- Generated by graphviz version 2.44.1 (20200629.0846)
 -->
<!-- Title: tt Pages: 1 -->
<svg width="732pt" height="746pt"
 viewBox="0.00 0.00 732.15 746.00" xmlns="http://www.w3.org/2000/svg" xmlns:xlink="http://www.w3.org/1999/xlink">
<g id="graph0" class="graph" transform="scale(1 1) rotate(0) translate(4 742)">
<title>tt</title>
<polygon fill="white" stroke="transparent" points="-4,4 -4,-742 728.15,-742 728.15,4 -4,4"/>
<!-- dfx -->
<g id="node1" class="node">
<title>dfx</title>
<ellipse fill="none" stroke="black" cx="56.63" cy="-477" rx="56.76" ry="18"/>
<text text-anchor="middle" x="56.63" y="-472.8" font-family="Times New Roman,serif" font-size="14.00">display:flex</text>
</g>
<!-- frq -->
<g id="node2" class="node">
<title>frq</title>
<polygon fill="lightgreen" stroke="black" points="218.65,-495 149.13,-495 149.13,-459 218.65,-459 218.65,-495"/>
<text text-anchor="middle" x="183.89" y="-472.8" font-family="Times New Roman,serif" font-size="14.00">flex容器</text>
</g>
<!-- dfx&#45;&gt;frq -->
<g id="edge1" class="edge">
<title>dfx&#45;&gt;frq</title>
<path fill="none" stroke="black" d="M113.3,-477C121.84,-477 130.56,-477 138.81,-477"/>
<polygon fill="black" stroke="black" points="138.96,-480.5 148.96,-477 138.96,-473.5 138.96,-480.5"/>
</g>
<!-- fdr -->
<g id="node3" class="node">
<title>fdr</title>
<ellipse fill="none" stroke="black" cx="318.11" cy="-666" rx="63.68" ry="18"/>
<text text-anchor="middle" x="318.11" y="-661.8" font-family="Times New Roman,serif" font-size="14.00">flex&#45;direction</text>
</g>
<!-- frq&#45;&gt;fdr -->
<g id="edge2" class="edge">
<title>frq&#45;&gt;fdr</title>
<path fill="none" stroke="black" d="M193.58,-495.17C205.7,-519.74 229.06,-564.44 254.52,-599 265.62,-614.07 279.73,-629.43 291.74,-641.64"/>
<polygon fill="black" stroke="black" points="289.36,-644.2 298.91,-648.8 294.31,-639.25 289.36,-644.2"/>
</g>
<!-- clm -->
<g id="node6" class="node">
<title>clm</title>
<polygon fill="lightgreen" stroke="black" points="362.43,-590 273.79,-590 273.79,-554 362.43,-554 362.43,-590"/>
<text text-anchor="middle" x="318.11" y="-567.8" font-family="Times New Roman,serif" font-size="14.00">交叉轴方向</text>
</g>
<!-- frq&#45;&gt;clm -->
<g id="edge5" class="edge">
<title>frq&#45;&gt;clm</title>
<path fill="none" stroke="black" d="M210.07,-495.09C230.93,-510.08 260.76,-531.51 283.63,-547.95"/>
<polygon fill="black" stroke="black" points="281.86,-550.98 292.02,-553.97 285.94,-545.3 281.86,-550.98"/>
</g>
<!-- rwd -->
<g id="node8" class="node">
<title>rwd</title>
<polygon fill="lightgreen" stroke="black" points="358.54,-495 277.68,-495 277.68,-459 358.54,-459 358.54,-495"/>
<text text-anchor="middle" x="318.11" y="-472.8" font-family="Times New Roman,serif" font-size="14.00">主轴方向</text>
</g>
<!-- frq&#45;&gt;rwd -->
<g id="edge7" class="edge">
<title>frq&#45;&gt;rwd</title>
<path fill="none" stroke="black" d="M218.6,-477C233.28,-477 250.8,-477 266.97,-477"/>
<polygon fill="black" stroke="black" points="267.35,-480.5 277.35,-477 267.35,-473.5 267.35,-480.5"/>
</g>
<!-- fwp -->
<g id="node11" class="node">
<title>fwp</title>
<ellipse fill="none" stroke="black" cx="318.11" cy="-99" rx="48.63" ry="18"/>
<text text-anchor="middle" x="318.11" y="-94.8" font-family="Times New Roman,serif" font-size="14.00">flex&#45;wrap</text>
</g>
<!-- frq&#45;&gt;fwp -->
<g id="edge10" class="edge">
<title>frq&#45;&gt;fwp</title>
<path fill="none" stroke="black" d="M191.27,-458.77C212.65,-397.64 281.89,-199.69 307.48,-126.52"/>
<polygon fill="black" stroke="black" points="310.8,-127.64 310.8,-117.05 304.19,-125.33 310.8,-127.64"/>
</g>
<!-- fdy -->
<g id="node19" class="node">
<title>fdy</title>
<g id="a_node19"><a xlink:title="&#10;flex容器内, float, clear, vertical&#45;align样式会无效&#10; &#160;&#160;&#160;">
<polygon fill="lightgreen" stroke="black" points="347.38,-360 288.84,-360 288.84,-324 347.38,-324 347.38,-360"/>
<text text-anchor="middle" x="318.11" y="-337.8" font-family="Times New Roman,serif" font-size="14.00">flex单元</text>
</a>
</g>
</g>
<!-- frq&#45;&gt;fdy -->
<g id="edge23" class="edge">
<title>frq&#45;&gt;fdy</title>
<path fill="none" stroke="black" d="M202.72,-458.79C225.69,-435.34 265.75,-394.44 291.85,-367.79"/>
<polygon fill="black" stroke="black" points="294.64,-369.94 299.14,-360.35 289.64,-365.04 294.64,-369.94"/>
</g>
<!-- frw -->
<g id="node4" class="node">
<title>frw</title>
<ellipse fill="none" stroke="black" cx="485.06" cy="-720" rx="27" ry="18"/>
<text text-anchor="middle" x="485.06" y="-715.8" font-family="Times New Roman,serif" font-size="14.00">row</text>
</g>
<!-- fdr&#45;&gt;frw -->
<g id="edge3" class="edge">
<title>fdr&#45;&gt;frw</title>
<path fill="none" stroke="black" d="M360.31,-679.49C388.11,-688.59 424.34,-700.45 450.4,-708.98"/>
<polygon fill="black" stroke="black" points="449.61,-712.4 460.2,-712.19 451.78,-705.75 449.61,-712.4"/>
</g>
<!-- col -->
<g id="node5" class="node">
<title>col</title>
<ellipse fill="none" stroke="black" cx="485.06" cy="-666" rx="40.01" ry="18"/>
<text text-anchor="middle" x="485.06" y="-661.8" font-family="Times New Roman,serif" font-size="14.00">column</text>
</g>
<!-- fdr&#45;&gt;col -->
<g id="edge4" class="edge">
<title>fdr&#45;&gt;col</title>
<path fill="none" stroke="black" d="M381.94,-666C399.43,-666 418.17,-666 434.77,-666"/>
<polygon fill="black" stroke="black" points="434.79,-669.5 444.79,-666 434.79,-662.5 434.79,-669.5"/>
</g>
<!-- ali -->
<g id="node7" class="node">
<title>ali</title>
<g id="a_node7"><a xlink:title="&#10;定义item在侧轴的对齐方式.&#10;需要在容器内定义.&#10; &#160;&#160;&#160;">
<ellipse fill="none" stroke="black" cx="485.06" cy="-612" rx="54.47" ry="18"/>
<text text-anchor="middle" x="485.06" y="-607.8" font-family="Times New Roman,serif" font-size="14.00">align&#45;items</text>
</a>
</g>
</g>
<!-- clm&#45;&gt;ali -->
<g id="edge6" class="edge">
<title>clm&#45;&gt;ali</title>
<path fill="none" stroke="black" d="M362.45,-582.51C383.39,-587.59 408.71,-593.73 430.82,-599.09"/>
<polygon fill="black" stroke="black" points="430.18,-602.54 440.72,-601.49 431.83,-595.73 430.18,-602.54"/>
</g>
<!-- fed -->
<g id="node15" class="node">
<title>fed</title>
<ellipse fill="none" stroke="black" cx="656.28" cy="-612" rx="43.42" ry="18"/>
<text text-anchor="middle" x="656.28" y="-607.8" font-family="Times New Roman,serif" font-size="14.00">flex&#45;end</text>
</g>
<!-- ali&#45;&gt;fed -->
<g id="edge15" class="edge">
<title>ali&#45;&gt;fed</title>
<path fill="none" stroke="black" d="M539.6,-612C559.8,-612 582.75,-612 602.85,-612"/>
<polygon fill="black" stroke="black" points="603.07,-615.5 613.07,-612 603.07,-608.5 603.07,-615.5"/>
</g>
<!-- fst -->
<g id="node18" class="node">
<title>fst</title>
<ellipse fill="none" stroke="black" cx="656.28" cy="-504" rx="45.78" ry="18"/>
<text text-anchor="middle" x="656.28" y="-499.8" font-family="Times New Roman,serif" font-size="14.00">flex&#45;start</text>
</g>
<!-- ali&#45;&gt;fst -->
<g id="edge21" class="edge">
<title>ali&#45;&gt;fst</title>
<path fill="none" stroke="black" d="M526.44,-600.04C535.57,-596.16 544.8,-591.21 552.41,-585 574.76,-566.76 566.04,-549.21 588.41,-531 594.56,-526 601.75,-521.82 609.1,-518.36"/>
<polygon fill="black" stroke="black" points="610.61,-521.52 618.42,-514.36 607.85,-515.09 610.61,-521.52"/>
</g>
<!-- stc -->
<g id="node26" class="node">
<title>stc</title>
<g id="a_node26"><a xlink:title="拉伸">
<ellipse fill="none" stroke="black" cx="656.28" cy="-666" rx="36.55" ry="18"/>
<text text-anchor="middle" x="656.28" y="-661.8" font-family="Times New Roman,serif" font-size="14.00">stretch</text>
</a>
</g>
</g>
<!-- ali&#45;&gt;stc -->
<g id="edge30" class="edge">
<title>ali&#45;&gt;stc</title>
<path fill="none" stroke="black" d="M524.88,-624.39C551.99,-633.04 588.09,-644.56 615.42,-653.28"/>
<polygon fill="black" stroke="black" points="614.48,-656.65 625.07,-656.36 616.61,-649.99 614.48,-656.65"/>
</g>
<!-- bsl -->
<g id="node27" class="node">
<title>bsl</title>
<ellipse fill="none" stroke="black" cx="656.28" cy="-720" rx="42.85" ry="18"/>
<text text-anchor="middle" x="656.28" y="-715.8" font-family="Times New Roman,serif" font-size="14.00">baseline</text>
</g>
<!-- ali&#45;&gt;bsl -->
<g id="edge32" class="edge">
<title>ali&#45;&gt;bsl</title>
<path fill="none" stroke="black" d="M526.44,-623.96C535.57,-627.84 544.8,-632.79 552.41,-639 574.76,-657.24 566.04,-674.79 588.41,-693 595.04,-698.4 602.89,-702.84 610.84,-706.44"/>
<polygon fill="black" stroke="black" points="609.57,-709.71 620.15,-710.3 612.25,-703.24 609.57,-709.71"/>
</g>
<!-- ctr -->
<g id="node28" class="node">
<title>ctr</title>
<ellipse fill="none" stroke="black" cx="656.28" cy="-558" rx="34.75" ry="18"/>
<text text-anchor="middle" x="656.28" y="-553.8" font-family="Times New Roman,serif" font-size="14.00">center</text>
</g>
<!-- ali&#45;&gt;ctr -->
<g id="edge33" class="edge">
<title>ali&#45;&gt;ctr</title>
<path fill="none" stroke="black" d="M524.88,-599.61C552.43,-590.82 589.25,-579.07 616.73,-570.3"/>
<polygon fill="black" stroke="black" points="617.94,-573.59 626.4,-567.21 615.81,-566.92 617.94,-573.59"/>
</g>
<!-- jsc -->
<g id="node9" class="node">
<title>jsc</title>
<ellipse fill="none" stroke="black" cx="485.06" cy="-450" rx="67.21" ry="18"/>
<text text-anchor="middle" x="485.06" y="-445.8" font-family="Times New Roman,serif" font-size="14.00">justify&#45;content</text>
</g>
<!-- rwd&#45;&gt;jsc -->
<g id="edge8" class="edge">
<title>rwd&#45;&gt;jsc</title>
<path fill="none" stroke="black" d="M358.62,-470.53C376.15,-467.66 397.27,-464.21 417.14,-460.95"/>
<polygon fill="black" stroke="black" points="417.78,-464.4 427.08,-459.33 416.65,-457.49 417.78,-464.4"/>
</g>
<!-- alc -->
<g id="node10" class="node">
<title>alc</title>
<g id="a_node10"><a xlink:title="&#10;在flex&#45;wrap设置为wrap的时候,item会换行,这个时候这个align&#45;content起作用.&#10; &#160;&#160;&#160;">
<ellipse fill="none" stroke="black" cx="485.06" cy="-504" rx="61.98" ry="18"/>
<text text-anchor="middle" x="485.06" y="-499.8" font-family="Times New Roman,serif" font-size="14.00">align&#45;content</text>
</a>
</g>
</g>
<!-- rwd&#45;&gt;alc -->
<g id="edge9" class="edge">
<title>rwd&#45;&gt;alc</title>
<path fill="none" stroke="black" d="M358.62,-483.47C377.13,-486.5 399.65,-490.18 420.47,-493.59"/>
<polygon fill="black" stroke="black" points="420.09,-497.08 430.53,-495.24 421.22,-490.17 420.09,-497.08"/>
</g>
<!-- jsc&#45;&gt;fed -->
<g id="edge14" class="edge">
<title>jsc&#45;&gt;fed</title>
<path fill="none" stroke="black" d="M532.52,-462.81C539.88,-466.46 546.88,-471.1 552.41,-477 587.01,-513.92 553.76,-548.13 588.41,-585 594.02,-590.97 601.12,-595.65 608.6,-599.31"/>
<polygon fill="black" stroke="black" points="607.6,-602.69 618.17,-603.42 610.37,-596.26 607.6,-602.69"/>
</g>
<!-- spb -->
<g id="node17" class="node">
<title>spb</title>
<ellipse fill="none" stroke="black" cx="656.28" cy="-450" rx="67.74" ry="18"/>
<text text-anchor="middle" x="656.28" y="-445.8" font-family="Times New Roman,serif" font-size="14.00">space&#45;between</text>
</g>
<!-- jsc&#45;&gt;spb -->
<g id="edge18" class="edge">
<title>jsc&#45;&gt;spb</title>
<path fill="none" stroke="black" d="M552.45,-450C560.9,-450 569.61,-450 578.21,-450"/>
<polygon fill="black" stroke="black" points="578.24,-453.5 588.24,-450 578.24,-446.5 578.24,-453.5"/>
</g>
<!-- jsc&#45;&gt;fst -->
<g id="edge20" class="edge">
<title>jsc&#45;&gt;fst</title>
<path fill="none" stroke="black" d="M529.2,-463.77C554.09,-471.71 585.35,-481.69 610.52,-489.72"/>
<polygon fill="black" stroke="black" points="609.6,-493.1 620.19,-492.8 611.73,-486.43 609.6,-493.1"/>
</g>
<!-- jsc&#45;&gt;ctr -->
<g id="edge35" class="edge">
<title>jsc&#45;&gt;ctr</title>
<path fill="none" stroke="black" d="M529.91,-463.49C537.88,-467.11 545.76,-471.57 552.41,-477 574.76,-495.24 566.04,-512.79 588.41,-531 596.35,-537.46 606.04,-542.55 615.55,-546.48"/>
<polygon fill="black" stroke="black" points="614.33,-549.77 624.92,-550.04 616.81,-543.22 614.33,-549.77"/>
</g>
<!-- ard -->
<g id="node29" class="node">
<title>ard</title>
<ellipse fill="none" stroke="black" cx="656.28" cy="-396" rx="62.52" ry="18"/>
<text text-anchor="middle" x="656.28" y="-391.8" font-family="Times New Roman,serif" font-size="14.00">space&#45;around</text>
</g>
<!-- jsc&#45;&gt;ard -->
<g id="edge38" class="edge">
<title>jsc&#45;&gt;ard</title>
<path fill="none" stroke="black" d="M529.2,-436.23C552,-428.96 580.15,-419.97 604.06,-412.34"/>
<polygon fill="black" stroke="black" points="605.22,-415.65 613.68,-409.27 603.09,-408.98 605.22,-415.65"/>
</g>
<!-- alc&#45;&gt;fed -->
<g id="edge17" class="edge">
<title>alc&#45;&gt;fed</title>
<path fill="none" stroke="black" d="M528.52,-516.86C536.96,-520.6 545.38,-525.26 552.41,-531 574.76,-549.24 566.04,-566.79 588.41,-585 594.9,-590.28 602.56,-594.65 610.33,-598.21"/>
<polygon fill="black" stroke="black" points="609.23,-601.54 619.8,-602.17 611.93,-595.09 609.23,-601.54"/>
</g>
<!-- alc&#45;&gt;spb -->
<g id="edge19" class="edge">
<title>alc&#45;&gt;spb</title>
<path fill="none" stroke="black" d="M527.45,-490.79C550.07,-483.57 578.32,-474.56 602.51,-466.84"/>
<polygon fill="black" stroke="black" points="603.78,-470.11 612.25,-463.73 601.66,-463.44 603.78,-470.11"/>
</g>
<!-- alc&#45;&gt;fst -->
<g id="edge22" class="edge">
<title>alc&#45;&gt;fst</title>
<path fill="none" stroke="black" d="M547.15,-504C564.4,-504 583.06,-504 599.95,-504"/>
<polygon fill="black" stroke="black" points="600.21,-507.5 610.21,-504 600.21,-500.5 600.21,-507.5"/>
</g>
<!-- alc&#45;&gt;stc -->
<g id="edge31" class="edge">
<title>alc&#45;&gt;stc</title>
<path fill="none" stroke="black" d="M531.15,-516.15C539.02,-519.89 546.54,-524.74 552.41,-531 587.01,-567.92 553.76,-602.13 588.41,-639 595.09,-646.11 603.9,-651.39 612.93,-655.3"/>
<polygon fill="black" stroke="black" points="611.74,-658.59 622.33,-658.9 614.24,-652.06 611.74,-658.59"/>
</g>
<!-- alc&#45;&gt;ctr -->
<g id="edge36" class="edge">
<title>alc&#45;&gt;ctr</title>
<path fill="none" stroke="black" d="M527.45,-517.21C554.7,-525.9 590.11,-537.2 616.75,-545.71"/>
<polygon fill="black" stroke="black" points="615.91,-549.11 626.5,-548.82 618.04,-542.44 615.91,-549.11"/>
</g>
<!-- alc&#45;&gt;ard -->
<g id="edge39" class="edge">
<title>alc&#45;&gt;ard</title>
<path fill="none" stroke="black" d="M528.52,-491.14C536.96,-487.4 545.38,-482.74 552.41,-477 574.76,-458.76 566.04,-441.21 588.41,-423 592.78,-419.44 597.68,-416.3 602.79,-413.54"/>
<polygon fill="black" stroke="black" points="604.69,-416.51 612.14,-408.97 601.62,-410.22 604.69,-416.51"/>
</g>
<!-- nwp -->
<g id="node12" class="node">
<title>nwp</title>
<ellipse fill="none" stroke="black" cx="485.06" cy="-126" rx="33.05" ry="18"/>
<text text-anchor="middle" x="485.06" y="-121.8" font-family="Times New Roman,serif" font-size="14.00">norap</text>
</g>
<!-- fwp&#45;&gt;nwp -->
<g id="edge11" class="edge">
<title>fwp&#45;&gt;nwp</title>
<path fill="none" stroke="black" d="M362.88,-106.16C387.77,-110.24 418.73,-115.31 443.13,-119.3"/>
<polygon fill="black" stroke="black" points="442.72,-122.78 453.15,-120.94 443.85,-115.87 442.72,-122.78"/>
</g>
<!-- wrp -->
<g id="node13" class="node">
<title>wrp</title>
<ellipse fill="none" stroke="black" cx="485.06" cy="-72" rx="30.18" ry="18"/>
<text text-anchor="middle" x="485.06" y="-67.8" font-family="Times New Roman,serif" font-size="14.00">wrap</text>
</g>
<!-- fwp&#45;&gt;wrp -->
<g id="edge12" class="edge">
<title>fwp&#45;&gt;wrp</title>
<path fill="none" stroke="black" d="M362.88,-91.84C388.6,-87.63 420.82,-82.35 445.57,-78.3"/>
<polygon fill="black" stroke="black" points="446.37,-81.72 455.67,-76.65 445.24,-74.81 446.37,-81.72"/>
</g>
<!-- wrs -->
<g id="node14" class="node">
<title>wrs</title>
<ellipse fill="none" stroke="black" cx="485.06" cy="-18" rx="61.35" ry="18"/>
<text text-anchor="middle" x="485.06" y="-13.8" font-family="Times New Roman,serif" font-size="14.00">wrap&#45;reverse</text>
</g>
<!-- fwp&#45;&gt;wrs -->
<g id="edge13" class="edge">
<title>fwp&#45;&gt;wrs</title>
<path fill="none" stroke="black" d="M345.05,-83.73C364.69,-72.43 392.5,-56.98 417.7,-45 423.96,-42.02 430.65,-39.06 437.27,-36.25"/>
<polygon fill="black" stroke="black" points="438.99,-39.33 446.88,-32.25 436.3,-32.86 438.99,-39.33"/>
</g>
<!-- als -->
<g id="node16" class="node">
<title>als</title>
<ellipse fill="none" stroke="black" cx="485.06" cy="-558" rx="47.51" ry="18"/>
<text text-anchor="middle" x="485.06" y="-553.8" font-family="Times New Roman,serif" font-size="14.00">align&#45;self</text>
</g>
<!-- als&#45;&gt;fed -->
<g id="edge16" class="edge">
<title>als&#45;&gt;fed</title>
<path fill="none" stroke="black" d="M521.94,-569.45C548.13,-577.81 583.75,-589.17 611.59,-598.06"/>
<polygon fill="black" stroke="black" points="610.87,-601.5 621.46,-601.21 613,-594.83 610.87,-601.5"/>
</g>
<!-- als&#45;&gt;ctr -->
<g id="edge34" class="edge">
<title>als&#45;&gt;ctr</title>
<path fill="none" stroke="black" d="M532.74,-558C557.29,-558 587.2,-558 611.32,-558"/>
<polygon fill="black" stroke="black" points="611.62,-561.5 621.62,-558 611.62,-554.5 611.62,-561.5"/>
</g>
<!-- fdy&#45;&gt;als -->
<g id="edge37" class="edge">
<title>fdy&#45;&gt;als</title>
<path fill="none" stroke="black" d="M330.35,-360.01C343.37,-381.19 365.16,-417.57 381.7,-450 399.6,-485.09 389.4,-503.59 417.7,-531 422.98,-536.12 429.36,-540.31 436.05,-543.73"/>
<polygon fill="black" stroke="black" points="434.75,-546.98 445.3,-547.94 437.65,-540.61 434.75,-546.98"/>
</g>
<!-- flx -->
<g id="node20" class="node">
<title>flx</title>
<g id="a_node20"><a xlink:title="用来固定大小">
<ellipse fill="none" stroke="black" cx="485.06" cy="-396" rx="27" ry="18"/>
<text text-anchor="middle" x="485.06" y="-391.8" font-family="Times New Roman,serif" font-size="14.00">flex</text>
</a>
</g>
</g>
<!-- fdy&#45;&gt;flx -->
<g id="edge24" class="edge">
<title>fdy&#45;&gt;flx</title>
<path fill="none" stroke="black" d="M347.47,-351.28C376.18,-360.68 420.57,-375.22 450.9,-385.14"/>
<polygon fill="black" stroke="black" points="450.01,-388.54 460.6,-388.32 452.19,-381.88 450.01,-388.54"/>
</g>
<!-- odr -->
<g id="node21" class="node">
<title>odr</title>
<g id="a_node21"><a xlink:title="&#10;指定自己的位置索引,从0开始&#10; &#160;&#160;&#160;">
<ellipse fill="none" stroke="black" cx="485.06" cy="-342" rx="31.32" ry="18"/>
<text text-anchor="middle" x="485.06" y="-337.8" font-family="Times New Roman,serif" font-size="14.00">order</text>
</a>
</g>
</g>
<!-- fdy&#45;&gt;odr -->
<g id="edge25" class="edge">
<title>fdy&#45;&gt;odr</title>
<path fill="none" stroke="black" d="M347.47,-342C373.91,-342 413.66,-342 443.47,-342"/>
<polygon fill="black" stroke="black" points="443.56,-345.5 453.56,-342 443.56,-338.5 443.56,-345.5"/>
</g>
<!-- bss -->
<g id="node22" class="node">
<title>bss</title>
<g id="a_node22"><a xlink:title="&#10;指定初始item大小, 默认是auto&#10; &#160;&#160;&#160;">
<ellipse fill="none" stroke="black" cx="485.06" cy="-288" rx="48.65" ry="18"/>
<text text-anchor="middle" x="485.06" y="-283.8" font-family="Times New Roman,serif" font-size="14.00">flex&#45;basis</text>
</a>
</g>
</g>
<!-- fdy&#45;&gt;bss -->
<g id="edge26" class="edge">
<title>fdy&#45;&gt;bss</title>
<path fill="none" stroke="black" d="M347.47,-332.72C372.46,-324.54 409.32,-312.47 438.45,-302.93"/>
<polygon fill="black" stroke="black" points="439.59,-306.24 448.01,-299.8 437.42,-299.59 439.59,-306.24"/>
</g>
<!-- fgw -->
<g id="node23" class="node">
<title>fgw</title>
<g id="a_node23"><a xlink:title="&#10;宽度的权重,权重越大占据空间就越大&#10; &#160;&#160;&#160;">
<ellipse fill="none" stroke="black" cx="485.06" cy="-234" rx="49.22" ry="18"/>
<text text-anchor="middle" x="485.06" y="-229.8" font-family="Times New Roman,serif" font-size="14.00">flex&#45;grow</text>
</a>
</g>
</g>
<!-- fdy&#45;&gt;fgw -->
<g id="edge27" class="edge">
<title>fdy&#45;&gt;fgw</title>
<path fill="none" stroke="black" d="M337.81,-323.69C356.73,-305.9 387.44,-279.02 417.7,-261 424.46,-256.97 431.94,-253.29 439.36,-250.02"/>
<polygon fill="black" stroke="black" points="440.8,-253.21 448.67,-246.11 438.09,-246.75 440.8,-253.21"/>
</g>
<!-- fsk -->
<g id="node24" class="node">
<title>fsk</title>
<g id="a_node24"><a xlink:title="&#10;收缩的时候,空间权重设置&#10; &#160;&#160;&#160;">
<ellipse fill="none" stroke="black" cx="485.06" cy="-180" rx="53.31" ry="18"/>
<text text-anchor="middle" x="485.06" y="-175.8" font-family="Times New Roman,serif" font-size="14.00">flex&#45;shrink</text>
</a>
</g>
</g>
<!-- fdy&#45;&gt;fsk -->
<g id="edge28" class="edge">
<title>fdy&#45;&gt;fsk</title>
<path fill="none" stroke="black" d="M328.13,-323.77C343.1,-295.23 375.62,-239.88 417.7,-207 423.03,-202.83 429.1,-199.22 435.34,-196.11"/>
<polygon fill="black" stroke="black" points="436.91,-199.24 444.55,-191.91 434,-192.87 436.91,-199.24"/>
</g>
<!-- pct -->
<g id="node25" class="node">
<title>pct</title>
<ellipse fill="none" stroke="black" cx="656.28" cy="-342" rx="43.45" ry="18"/>
<text text-anchor="middle" x="656.28" y="-337.8" font-family="Times New Roman,serif" font-size="14.00">0 0 30%</text>
</g>
<!-- flx&#45;&gt;pct -->
<g id="edge29" class="edge">
<title>flx&#45;&gt;pct</title>
<path fill="none" stroke="black" d="M509.94,-388.38C536.36,-379.95 579.48,-366.19 611.9,-355.84"/>
<polygon fill="black" stroke="black" points="613.13,-359.12 621.59,-352.75 611,-352.46 613.13,-359.12"/>
</g>
</g>
</svg>
