<?xml version="1.0" encoding="UTF-8" standalone="no"?>
<!DOCTYPE svg PUBLIC "-//W3C//DTD SVG 1.1//EN"
 "http://www.w3.org/Graphics/SVG/1.1/DTD/svg11.dtd">
<!-- Generated by graphviz version 2.44.1 (20200629.0846)
 -->
<!-- Title: tt Pages: 1 -->
<svg width="410pt" height="548pt"
 viewBox="0.00 0.00 409.95 548.00" xmlns="http://www.w3.org/2000/svg" xmlns:xlink="http://www.w3.org/1999/xlink">
<g id="graph0" class="graph" transform="scale(1 1) rotate(0) translate(4 544)">
<title>tt</title>
<polygon fill="white" stroke="transparent" points="-4,4 -4,-544 405.95,-544 405.95,4 -4,4"/>
<!-- lst -->
<g id="node1" class="node">
<title>lst</title>
<polygon fill="lightgreen" stroke="black" points="152.18,-540 98.18,-540 98.18,-504 152.18,-504 152.18,-540"/>
<text text-anchor="middle" x="125.18" y="-517.8" font-family="Times New Roman,serif" font-size="14.00">list</text>
</g>
<!-- lpl -->
<g id="node2" class="node">
<title>lpl</title>
<ellipse fill="white" stroke="black" cx="35.18" cy="-450" rx="35.35" ry="18"/>
<text text-anchor="middle" x="35.18" y="-445.8" font-family="Times New Roman,serif" font-size="14.00">lapply</text>
</g>
<!-- lst&#45;&gt;lpl -->
<g id="edge2" class="edge">
<title>lst&#45;&gt;lpl</title>
<path fill="none" stroke="black" d="M98.01,-504.41C84.99,-495.08 69.7,-483.31 57.39,-473.2"/>
<polygon fill="black" stroke="black" points="59.31,-470.25 49.4,-466.51 54.82,-475.62 59.31,-470.25"/>
</g>
<!-- dcl -->
<g id="node5" class="node">
<title>dcl</title>
<ellipse fill="white" stroke="black" cx="125.18" cy="-450" rx="37.1" ry="18"/>
<text text-anchor="middle" x="125.18" y="-445.8" font-family="Times New Roman,serif" font-size="14.00">do.call</text>
</g>
<!-- lst&#45;&gt;dcl -->
<g id="edge4" class="edge">
<title>lst&#45;&gt;dcl</title>
<path fill="none" stroke="black" d="M125.18,-503.7C125.18,-495.98 125.18,-486.71 125.18,-478.11"/>
<polygon fill="black" stroke="black" points="128.68,-478.1 125.18,-468.1 121.68,-478.1 128.68,-478.1"/>
</g>
<!-- spl -->
<g id="node9" class="node">
<title>spl</title>
<g id="a_node9"><a xlink:title="&#10;FUN返回值必须是length为1的原子类型&#10; &#160;&#160;&#160;">
<ellipse fill="white" stroke="black" cx="235.18" cy="-378" rx="79.91" ry="18"/>
<text text-anchor="middle" x="235.18" y="-373.8" font-family="Times New Roman,serif" font-size="14.00">单值函数sapply</text>
</a>
</g>
</g>
<!-- lst&#45;&gt;spl -->
<g id="edge10" class="edge">
<title>lst&#45;&gt;spl</title>
<path fill="none" stroke="black" d="M140.92,-503.67C150,-493.48 161.5,-480.23 171.18,-468 187.71,-447.09 205.31,-422.42 217.86,-404.36"/>
<polygon fill="black" stroke="black" points="220.79,-406.29 223.59,-396.07 215.03,-402.31 220.79,-406.29"/>
</g>
<!-- vpl -->
<g id="node12" class="node">
<title>vpl</title>
<ellipse fill="white" stroke="black" cx="332.18" cy="-306" rx="69.55" ry="18"/>
<text text-anchor="middle" x="332.18" y="-301.8" font-family="Times New Roman,serif" font-size="14.00">vct函数sapply</text>
</g>
<!-- lst&#45;&gt;vpl -->
<g id="edge15" class="edge">
<title>lst&#45;&gt;vpl</title>
<path fill="none" stroke="black" d="M152.42,-512.71C196.97,-497.57 284.42,-460.88 324.18,-396 335.48,-377.56 336.84,-352.81 335.74,-334.09"/>
<polygon fill="black" stroke="black" points="339.23,-333.79 334.89,-324.12 332.25,-334.38 339.23,-333.79"/>
</g>
<!-- lpl&#45;&gt;lst -->
<g id="edge1" class="edge">
<title>lpl&#45;&gt;lst</title>
<path fill="none" stroke="black" d="M57.5,-464.15C70.72,-473.41 87.34,-486.07 100.87,-497.09"/>
<polygon fill="black" stroke="black" points="98.91,-500.01 108.84,-503.7 103.38,-494.62 98.91,-500.01"/>
</g>
<!-- dtf -->
<g id="node3" class="node">
<title>dtf</title>
<polygon fill="lightgreen" stroke="black" points="234.14,-36 158.21,-36 158.21,0 234.14,0 234.14,-36"/>
<text text-anchor="middle" x="196.18" y="-13.8" font-family="Times New Roman,serif" font-size="14.00">data.frame</text>
</g>
<!-- asd -->
<g id="node4" class="node">
<title>asd</title>
<ellipse fill="white" stroke="black" cx="196.18" cy="-90" rx="62.52" ry="18"/>
<text text-anchor="middle" x="196.18" y="-85.8" font-family="Times New Roman,serif" font-size="14.00">as.data.frame</text>
</g>
<!-- asd&#45;&gt;dtf -->
<g id="edge3" class="edge">
<title>asd&#45;&gt;dtf</title>
<path fill="none" stroke="black" d="M196.18,-71.7C196.18,-63.98 196.18,-54.71 196.18,-46.11"/>
<polygon fill="black" stroke="black" points="199.68,-46.1 196.18,-36.1 192.68,-46.1 199.68,-46.1"/>
</g>
<!-- cbd -->
<g id="node6" class="node">
<title>cbd</title>
<g id="a_node6"><a xlink:title="&#10;do.call(&#39;cbind&#39;, lst)&#10;do.call(&#39;rbind&#39;, lst)&#10; &#160;&#160;&#160;">
<ellipse fill="white" stroke="black" cx="98.18" cy="-234" rx="32.48" ry="18"/>
<text text-anchor="middle" x="98.18" y="-229.8" font-family="Times New Roman,serif" font-size="14.00">cbind</text>
</a>
</g>
</g>
<!-- dcl&#45;&gt;cbd -->
<g id="edge5" class="edge">
<title>dcl&#45;&gt;cbd</title>
<path fill="none" stroke="black" d="M105.31,-434.75C93.84,-425.24 80.48,-411.63 74.18,-396 55.99,-350.87 73.12,-293.61 86.29,-260.96"/>
<polygon fill="black" stroke="black" points="89.56,-262.23 90.21,-251.66 83.1,-259.51 89.56,-262.23"/>
</g>
<!-- __c -->
<g id="node7" class="node">
<title>__c</title>
<ellipse fill="white" stroke="black" cx="110.18" cy="-378" rx="27" ry="18"/>
<text text-anchor="middle" x="110.18" y="-373.8" font-family="Times New Roman,serif" font-size="14.00">c</text>
</g>
<!-- dcl&#45;&gt;__c -->
<g id="edge6" class="edge">
<title>dcl&#45;&gt;__c</title>
<path fill="none" stroke="black" d="M121.54,-432.05C119.87,-424.26 117.85,-414.82 115.98,-406.08"/>
<polygon fill="black" stroke="black" points="119.4,-405.32 113.88,-396.28 112.55,-406.79 119.4,-405.32"/>
</g>
<!-- mtx -->
<g id="node11" class="node">
<title>mtx</title>
<polygon fill="lightgreen" stroke="black" points="223.18,-180 169.18,-180 169.18,-144 223.18,-144 223.18,-180"/>
<text text-anchor="start" x="177.9" y="-157.8" font-family="Times New Roman,serif" font-size="14.00">matrix</text>
</g>
<!-- cbd&#45;&gt;mtx -->
<g id="edge12" class="edge">
<title>cbd&#45;&gt;mtx</title>
<path fill="none" stroke="black" d="M117.54,-219.17C130.81,-209.69 148.73,-196.89 164.11,-185.9"/>
<polygon fill="black" stroke="black" points="166.25,-188.68 172.35,-180.02 162.18,-182.98 166.25,-188.68"/>
</g>
<!-- vct -->
<g id="node8" class="node">
<title>vct</title>
<polygon fill="lightgreen" stroke="black" points="223.18,-324 169.18,-324 169.18,-288 223.18,-288 223.18,-324"/>
<text text-anchor="middle" x="196.18" y="-301.8" font-family="Times New Roman,serif" font-size="14.00">vector</text>
</g>
<!-- __c&#45;&gt;vct -->
<g id="edge7" class="edge">
<title>__c&#45;&gt;vct</title>
<path fill="none" stroke="black" d="M126.76,-363.5C138.16,-354.23 153.6,-341.66 167.02,-330.73"/>
<polygon fill="black" stroke="black" points="169.52,-333.21 175.07,-324.18 165.1,-327.78 169.52,-333.21"/>
</g>
<!-- fun_mtx -->
<g id="node10" class="node">
<title>fun_mtx</title>
<g id="a_node10"><a xlink:title="&#10;matrix(ncol=3)&#10; &#160;&#160;&#160;">
<ellipse fill="white" stroke="black" cx="196.18" cy="-234" rx="36.49" ry="18"/>
<text text-anchor="start" x="177.9" y="-229.8" font-family="Times New Roman,serif" font-size="14.00">matrix</text>
</a>
</g>
</g>
<!-- vct&#45;&gt;fun_mtx -->
<g id="edge9" class="edge">
<title>vct&#45;&gt;fun_mtx</title>
<path fill="none" stroke="black" d="M196.18,-287.7C196.18,-279.98 196.18,-270.71 196.18,-262.11"/>
<polygon fill="black" stroke="black" points="199.68,-262.1 196.18,-252.1 192.68,-262.1 199.68,-262.1"/>
</g>
<!-- spl&#45;&gt;vct -->
<g id="edge8" class="edge">
<title>spl&#45;&gt;vct</title>
<path fill="none" stroke="black" d="M225.74,-360.05C221.25,-352.01 215.79,-342.2 210.79,-333.23"/>
<polygon fill="black" stroke="black" points="213.73,-331.31 205.8,-324.28 207.61,-334.71 213.73,-331.31"/>
</g>
<!-- fun_mtx&#45;&gt;mtx -->
<g id="edge13" class="edge">
<title>fun_mtx&#45;&gt;mtx</title>
<path fill="none" stroke="black" d="M196.18,-215.7C196.18,-207.98 196.18,-198.71 196.18,-190.11"/>
<polygon fill="black" stroke="black" points="199.68,-190.1 196.18,-180.1 192.68,-190.1 199.68,-190.1"/>
</g>
<!-- mtx&#45;&gt;asd -->
<g id="edge14" class="edge">
<title>mtx&#45;&gt;asd</title>
<path fill="none" stroke="black" d="M196.18,-143.7C196.18,-135.98 196.18,-126.71 196.18,-118.11"/>
<polygon fill="black" stroke="black" points="199.68,-118.1 196.18,-108.1 192.68,-118.1 199.68,-118.1"/>
</g>
<!-- vpl&#45;&gt;mtx -->
<g id="edge11" class="edge">
<title>vpl&#45;&gt;mtx</title>
<path fill="none" stroke="black" d="M316.31,-288.43C292.51,-263.58 247.42,-216.5 219.76,-187.62"/>
<polygon fill="black" stroke="black" points="222.23,-185.15 212.79,-180.35 217.18,-189.99 222.23,-185.15"/>
</g>
</g>
</svg>
